<?xml version="1.0" encoding="UTF-8"?>
<!DOCTYPE svg PUBLIC "-//W3C//DTD SVG 1.1//EN" "http://www.w3.org/Graphics/SVG/1.1/DTD/svg11.dtd">
<!-- Creator: CorelDRAW 2017 -->
<svg xmlns="http://www.w3.org/2000/svg" xml:space="preserve" width="100px" height="70px" version="1.1" style="shape-rendering:geometricPrecision; text-rendering:geometricPrecision; image-rendering:optimizeQuality; fill-rule:evenodd; clip-rule:evenodd"
viewBox="0 0 64 42"
 xmlns:xlink="http://www.w3.org/1999/xlink">
 <defs>
  <style type="text/css">
   <![CDATA[
    .fil2 {fill:#2B2A29;fill-rule:nonzero}
    .fil0 {fill:#010101;fill-rule:nonzero}
    .fil1 {fill:#BEBEBE;fill-rule:nonzero}
   ]]>
  </style>
 </defs>
 <g id="Layer_x0020_1">
  <metadata id="CorelCorpID_0Corel-Layer"/>
  <path class="fil0" d="M64 21l0 1c0,5 -2,10 -5,13 -4,5 -11,7 -17,7l-1 0c-2,0 -4,-1 -6,-1 -4,-2 -7,-5 -10,-7 -1,0 -1,-1 -2,-1 -3,-1 -6,-1 -9,-1 -1,0 -1,0 -2,-1 -2,0 -4,0 -5,0 -2,0 -3,-1 -4,-3 -1,-2 -1,-4 -2,-5l0 -1c0,-3 2,-5 4,-7 1,-1 2,0 2,-1 1,0 1,0 2,0 1,0 2,0 3,0 1,0 2,-1 3,-1 3,0 5,0 8,-1 1,0 3,-2 4,-3 2,-1 4,-3 5,-4 2,-1 4,-2 6,-3 1,0 3,-1 4,-1l2 0c6,0 11,2 15,6 4,4 6,9 6,14zm-2 -1l0 0c0,-2 -1,-5 -2,-7 -1,-3 -4,-6 -7,-7 -3,-2 -6,-3 -10,-3 -1,0 -2,0 -2,0 -5,0 -9,3 -12,6 -1,1 -2,2 -4,3 -2,1 -4,2 -6,2 0,0 -1,0 -1,0 -2,0 -4,0 -6,1 -1,1 -2,3 -3,5 -1,3 0,6 2,9 0,1 1,1 2,1 0,0 0,0 0,0 3,0 6,1 9,2 1,0 2,1 2,1 4,3 7,6 11,8 2,1 5,1 8,1 5,0 10,-3 14,-7 3,-3 4,-7 4,-11 0,-1 0,-2 0,-3zm-52 -6l0 0c0,0 0,0 -1,0 -1,1 -2,3 -3,5 0,1 0,3 0,4 0,2 1,4 3,5 0,0 1,0 1,0 -1,-2 -2,-4 -2,-6 0,-3 0,-6 2,-8zm-2 0l0 0c0,0 -1,0 -1,0 -2,1 -4,4 -4,7 0,3 1,6 3,8 0,0 1,0 1,0 -2,-2 -3,-5 -3,-8 0,-2 1,-5 3,-6zm-2 0l0 0c0,0 -1,0 -1,0 -2,1 -3,4 -3,6 0,2 0,4 1,6 1,1 2,2 3,2 -3,-3 -4,-9 -1,-13 0,-1 1,-1 1,-1z"/>
  <path class="fil1" d="M62 19c0,1 0,2 0,3 0,-1 0,-2 0,-3z"/>
  <path class="fil1" d="M41 2c1,0 2,0 2,0 -1,0 -2,0 -2,0z"/>
  <path class="fil1" d="M19 13c0,0 -1,0 -1,0 0,0 1,0 1,0z"/>
  <path class="fil1" d="M13 28c0,0 0,0 0,0 0,0 0,0 0,0z"/>
  <path class="fil1" d="M9 14c-2,2 -3,6 -2,8 0,2 1,4 2,6 0,0 -1,0 -1,0 -2,-1 -2,-3 -3,-5 0,-1 0,-3 0,-4 1,-2 2,-3 3,-5 0,0 0,0 1,0z"/>
  <path class="fil1" d="M8 14c-2,2 -3,4 -3,6 0,3 1,6 3,8 0,0 -1,0 -1,0 -2,-2 -4,-5 -3,-8 0,-3 1,-5 4,-7 0,0 1,0 1,0z"/>
  <path class="fil1" d="M5 14c0,1 -1,1 -1,1 -3,4 -2,9 1,13 -1,0 -2,-1 -3,-2 -1,-2 -1,-4 -1,-6 0,-2 1,-4 3,-6 0,0 1,0 1,0z"/>
  <path class="fil2" d="M28 26l0 -9 1 0 0 4 5 0 0 -4 1 0 0 9 -1 0 0 -4 -5 0 0 4 -1 0zm10 0l0 -9 1 0 0 9 -1 0zm3 0l0 -9 1 0 5 7 0 -7 1 0 0 9 -1 0 -5 -7 0 7 -1 0zm12 0l0 -8 -3 0 0 -1 7 0 0 1 -3 0 0 8 -1 0z"/>
 </g>
</svg>
